Coordinates
version=1
nRows=14
nColumns=36
inDegrees=yes

Units are S.I. units (second, meters, Newtons, ...)
If the header above contains a line with 'inDegrees', this indicates whether rotational values are in degrees (yes) or radians (no).

endheader
time	pelvis_tilt	pelvis_list	pelvis_rotation	pelvis_tx	pelvis_ty	pelvis_tz	hip_flexion_r	hip_adduction_r	hip_rotation_r	knee_angle_r	knee_angle_r_beta	ankle_angle_r	subtalar_angle_r	mtp_angle_r	hip_flexion_l	hip_adduction_l	hip_rotation_l	knee_angle_l	knee_angle_l_beta	ankle_angle_l	subtalar_angle_l	mtp_angle_l	lumbar_extension	lumbar_bending	lumbar_rotation	arm_flex_r	arm_add_r	arm_rot_r	elbow_flex_r	pro_sup_r	arm_flex_l	arm_add_l	arm_rot_l	elbow_flex_l	pro_sup_l
      0.00000000	     -6.19472019	      0.69900102	     -4.49051811	     -1.03262728	      1.20033466	     -0.07397334	     30.50236668	     -0.99455730	      1.26244810	     39.45822949	      0.68867602	      6.24995178	    -13.95714598	     -7.17572550	     27.90711921	     -1.33705431	     -4.87213975	     35.35547803	      0.61706950	      1.17764564	    -18.27851616	     -7.17572550	    -35.61309075	      1.29284570	     -1.16577871	     25.58329896	     -5.69070106	      9.06555834	    148.16603381	    102.30442289	     29.02278129	     -9.11362467	     21.41302501	    145.72014360	    104.68756533
      0.00416670	     -5.78073974	      1.29066794	     -3.78408332	     -1.03527563	      1.20338106	     -0.07550862	     31.12165802	     -0.97885026	      3.79357624	     41.17970999	      0.71872152	      9.60703504	    -14.38985661	     -7.18517982	     28.82809905	      0.49288763	     -3.15306584	     37.71285997	      0.65821358	      5.15413769	    -16.97843887	     -7.18517982	    -36.50723997	      1.44821488	     -1.88372502	     26.24457092	     -4.57087861	      7.10076363	    147.66990545	    102.47786700	     29.55527533	     -9.09146305	     20.19106624	    145.59700705	    104.52505316
      0.00833330	     -6.29841813	      1.60760541	     -3.62584788	     -1.03442790	      1.20141872	     -0.07497191	     31.28629414	     -1.10980557	      4.14324827	     40.49632362	      0.70679418	      8.88525778	    -16.29680646	     -7.27486145	     28.68228635	      0.85625941	     -2.04407549	     36.78201056	      0.64196719	      5.74014151	    -16.89552500	     -7.27486145	    -35.79427023	      1.32922071	     -2.07890699	     25.84963790	     -4.82091515	      8.31264515	    147.66315476	    106.68005076	     28.99179848	     -8.60986173	     19.52614585	    145.87731609	    104.26280601
      0.01250000	     -6.02993043	      1.43386146	     -3.31020827	     -1.03535528	      1.20225058	     -0.07498917	     30.94133317	     -1.10004441	      4.12888408	     40.49894109	      0.70683987	      8.91071431	    -16.30965166	     -7.32131009	     28.28677466	      1.10550325	     -0.75326839	     36.54932160	      0.63790600	      6.36213673	    -17.04174951	     -7.32131009	    -36.16658876	      1.81237289	     -2.18595758	     26.24161400	     -5.29542866	      9.72434157	    147.69812402	    108.06783984	     29.39525911	     -8.40686539	     18.92229504	    145.94891240	    103.75252991
      0.01666670	     -6.30136068	      1.34710005	     -3.13348270	     -1.03567977	      1.20105486	     -0.07568579	     31.18624426	     -1.07439078	      4.14946121	     40.35653472	      0.70435441	      8.80135802	    -16.25514782	     -7.35099126	     28.56244990	      1.27547733	     -0.06634542	     36.48422620	      0.63676987	      6.63310730	    -17.26190942	     -7.35099126	    -35.94636194	      2.10118009	     -2.39740592	     26.48671114	     -5.45823270	     10.94426597	    147.89833677	    108.61131146	     29.46167830	     -8.38911051	     18.96374009	    146.39666547	    103.85726076
      0.02083330	     -6.35746228	      1.39899952	     -2.90266306	     -1.03404390	      1.20017916	     -0.07511431	     31.12193660	     -1.18123774	      4.10267425	     40.26674984	      0.70278736	      8.94097025	    -16.07926153	     -7.39711703	     28.62728495	      1.46363302	      0.33796447	     36.51724201	      0.63734611	      6.71962677	    -17.40748857	     -7.39711703	    -35.67068226	      2.18619858	     -2.78202375	     26.38778157	     -5.46555235	     11.69014800	    148.01935776	    109.00414808	     29.30251725	     -8.66296570	     18.88159689	    146.81205986	    103.52368337
      0.02500000	     -6.76695887	      1.38974983	     -2.68668750	     -1.03426996	      1.20115236	     -0.07471522	     31.50022493	     -1.16283858	      4.14289720	     40.18085247	      0.70128817	      8.90312050	    -16.09887509	     -7.42171415	     29.11211120	      1.54137129	      0.69417475	     36.60950928	      0.63895647	      5.70752537	    -18.89246570	     -7.42171415	    -35.17904088	      2.26111195	     -3.06999979	     26.10539877	     -5.44316481	     12.28330176	    148.16259427	    108.27691324	     29.05028602	     -9.06526443	     19.39216968	    147.09175167	    102.24227663
      0.02916670	     -6.57960816	      1.32669525	     -2.58720719	     -1.03361678	      1.20196159	     -0.07325883	     31.13638512	     -1.07776504	      4.05832315	     40.04224733	      0.69886906	      9.03556055	    -15.78309738	     -7.43544558	     28.84096539	      1.44531178	      0.70012824	     36.59733600	      0.63874401	      5.42034119	    -19.08570108	     -7.43544558	    -35.30155084	      2.18243547	     -3.13250929	     25.88042480	     -5.24503075	     11.72242628	    148.26311966	    108.82818176	     29.03637552	     -9.32167898	     19.39992690	    147.23828949	    102.88912426
      0.03333330	     -6.68160981	      1.28222556	     -2.59524630	     -1.03476866	      1.20185772	     -0.07439193	     31.23243171	     -1.01183878	      4.00752158	     40.05864014	      0.69915516	      8.88762650	    -15.99021904	     -7.45281787	     28.96041367	      1.42903795	      0.74460115	     36.56900936	      0.63824962	      5.08112009	    -19.39670039	     -7.45281787	    -35.19999319	      2.19583138	     -3.16458151	     25.81503764	     -5.23922579	     11.74804486	    148.30892554	    109.38184198	     28.85097809	     -9.53500112	     19.53694367	    147.25683148	    103.08611169
      0.03750000	     -6.56688734	      1.21217649	     -2.58463950	     -1.03670007	      1.20247494	     -0.07464499	     31.13357178	     -0.95429449	      4.01437240	     39.97361082	      0.69767112	      8.75614980	    -16.08426314	     -7.46122090	     28.89153706	      1.39917674	      0.80793171	     36.52051829	      0.63740329	      4.41167621	    -20.11565513	     -7.46122090	    -35.22260774	      2.16611499	     -3.21607688	     25.69790003	     -5.14253990	     11.39484555	    148.21619154	    109.60746322	     28.89734012	     -9.68737355	     19.60455909	    147.08898883	    103.01051525
      0.04166670	     -6.67257213	      1.29893503	     -2.52910999	     -1.03493157	      1.19825720	     -0.07643734	     31.33879178	     -1.15534367	      3.96286992	     40.17644903	      0.70121132	      8.74331274	    -16.29761594	     -7.46071074	     29.33687901	      1.55513339	      0.94436366	     36.92283352	      0.64442501	      3.67145504	    -21.14279143	     -7.46071074	    -34.97530908	      2.13066805	     -3.36121601	     25.61859022	     -5.14980606	     11.20187742	    148.19217993	    108.49678211	     28.81707385	     -9.82575287	     19.79478286	    147.04142800	    101.83549236
      0.04583330	     -6.61461491	      1.38750288	     -2.54500482	     -1.03595768	      1.19908607	     -0.07614755	     31.35733475	     -1.33882187	      3.92412728	     40.27527056	      0.70293608	      8.93070877	    -16.11408710	     -7.47242115	     29.50886543	      1.64941684	      0.94020828	     37.16460922	      0.64864480	      3.41632627	    -21.36452374	     -7.47242115	    -34.95649175	      1.96015713	     -3.13858327	     25.58497841	     -5.30641066	     10.94320656	    148.25300985	    100.70296966	     29.29602925	     -9.69095093	     20.54242530	    146.80984172	     94.88214122
      0.05000000	     -7.01884489	      1.37907962	     -2.40869436	     -1.03773394	      1.20308970	     -0.07414722	     31.74525042	     -1.29788789	      3.91520050	     40.08989289	      0.69970063	      8.88108872	    -16.06682102	     -7.47689785	     29.88781484	      1.73343824	      1.22826544	     36.98518631	      0.64551328	      2.71068506	    -22.02420169	     -7.47689785	    -34.52114127	      2.03195777	     -3.41846673	     25.57456883	     -5.18416312	     10.86338595	    148.12235981	    110.36307804	     28.85904318	     -9.94377225	     20.06972814	    146.79706786	    102.40874612
      0.05416670	     -7.04418415	      1.33738738	     -2.44777652	     -1.03662377	      1.20205202	     -0.07623780	     31.79267243	     -1.33269251	      3.82766267	     40.06035316	      0.69918506	      8.70127505	    -15.99773443	     -7.48088116	     29.91800749	      1.77636429	      1.44067669	     36.88296380	      0.64372916	      2.66395863	    -21.91065963	     -7.48088116	    -34.55322431	      2.08283832	     -3.41430809	     25.66630575	     -5.23150122	     10.92254672	    148.06722406	    110.33733683	     28.90085739	     -9.93226721	     20.08353409	    146.80015602	    102.39742427
